<mxfile host="app.diagrams.net" modified="2024-05-30T08:32:16.129Z" agent="Mozilla/5.0 (Windows NT 10.0; Win64; x64) AppleWebKit/537.36 (KHTML, like Gecko) Chrome/124.0.0.0 Safari/537.36" etag="MZMatGM2_oeuxyznUrW1" version="24.4.10" type="github">
  <diagram name="第 1 页" id="8O5h5OScacTJMluupPfA">
    <mxGraphModel dx="1509" dy="821" grid="1" gridSize="10" guides="1" tooltips="1" connect="1" arrows="1" fold="1" page="1" pageScale="1" pageWidth="827" pageHeight="1169" math="0" shadow="0">
      <root>
        <mxCell id="0" />
        <mxCell id="1" parent="0" />
        <mxCell id="eqsFsYHSdhdJB8c038Pn-1" value="文档" style="rounded=0;whiteSpace=wrap;html=1;" vertex="1" parent="1">
          <mxGeometry x="120" y="420" width="80" height="100" as="geometry" />
        </mxCell>
        <mxCell id="eqsFsYHSdhdJB8c038Pn-2" value="用户使用手册、开发者手册、最佳实践、视频教程、低代码开发标准体系" style="rounded=0;whiteSpace=wrap;html=1;" vertex="1" parent="1">
          <mxGeometry x="200" y="420" width="440" height="60" as="geometry" />
        </mxCell>
        <mxCell id="eqsFsYHSdhdJB8c038Pn-3" value="" style="rounded=0;whiteSpace=wrap;html=1;" vertex="1" parent="1">
          <mxGeometry x="200" y="480" width="440" height="40" as="geometry" />
        </mxCell>
        <mxCell id="eqsFsYHSdhdJB8c038Pn-4" value="AIGC(文本生成模型)&amp;nbsp;" style="text;html=1;align=center;verticalAlign=middle;whiteSpace=wrap;rounded=0;" vertex="1" parent="1">
          <mxGeometry x="200" y="485" width="130" height="30" as="geometry" />
        </mxCell>
        <mxCell id="eqsFsYHSdhdJB8c038Pn-5" value="ChatGPT" style="text;html=1;align=center;verticalAlign=middle;whiteSpace=wrap;rounded=0;fillColor=#dae8fc;strokeColor=none;" vertex="1" parent="1">
          <mxGeometry x="330" y="487.5" width="60" height="25" as="geometry" />
        </mxCell>
        <mxCell id="eqsFsYHSdhdJB8c038Pn-6" value="通义千问" style="text;html=1;align=center;verticalAlign=middle;whiteSpace=wrap;rounded=0;fillColor=#dae8fc;strokeColor=none;" vertex="1" parent="1">
          <mxGeometry x="410" y="487.5" width="60" height="25" as="geometry" />
        </mxCell>
        <mxCell id="eqsFsYHSdhdJB8c038Pn-7" value="文心一言" style="text;html=1;align=center;verticalAlign=middle;whiteSpace=wrap;rounded=0;fillColor=#dae8fc;strokeColor=none;" vertex="1" parent="1">
          <mxGeometry x="490" y="487.5" width="60" height="25" as="geometry" />
        </mxCell>
        <mxCell id="eqsFsYHSdhdJB8c038Pn-8" value="讯飞星火" style="text;html=1;align=center;verticalAlign=middle;whiteSpace=wrap;rounded=0;fillColor=#dae8fc;strokeColor=none;" vertex="1" parent="1">
          <mxGeometry x="560" y="487.5" width="60" height="25" as="geometry" />
        </mxCell>
        <mxCell id="eqsFsYHSdhdJB8c038Pn-9" value="业务人员" style="shape=umlActor;verticalLabelPosition=bottom;verticalAlign=top;html=1;outlineConnect=0;" vertex="1" parent="1">
          <mxGeometry x="40" y="420" width="30" height="60" as="geometry" />
        </mxCell>
        <mxCell id="eqsFsYHSdhdJB8c038Pn-11" value="开发人员" style="shape=umlActor;verticalLabelPosition=bottom;verticalAlign=top;html=1;outlineConnect=0;" vertex="1" parent="1">
          <mxGeometry x="40" y="200" width="30" height="60" as="geometry" />
        </mxCell>
        <mxCell id="eqsFsYHSdhdJB8c038Pn-12" value="编程提示" style="rounded=0;whiteSpace=wrap;html=1;" vertex="1" parent="1">
          <mxGeometry x="120" y="190" width="80" height="120" as="geometry" />
        </mxCell>
        <mxCell id="eqsFsYHSdhdJB8c038Pn-13" value="低代码开发标准规范" style="rounded=0;whiteSpace=wrap;html=1;" vertex="1" parent="1">
          <mxGeometry x="200" y="190" width="440" height="80" as="geometry" />
        </mxCell>
        <mxCell id="eqsFsYHSdhdJB8c038Pn-15" value="" style="rounded=0;whiteSpace=wrap;html=1;" vertex="1" parent="1">
          <mxGeometry x="200" y="270" width="440" height="40" as="geometry" />
        </mxCell>
        <mxCell id="eqsFsYHSdhdJB8c038Pn-16" value="技术支持" style="rounded=0;whiteSpace=wrap;html=1;" vertex="1" parent="1">
          <mxGeometry x="120" y="340" width="80" height="80" as="geometry" />
        </mxCell>
        <mxCell id="eqsFsYHSdhdJB8c038Pn-17" value="" style="rounded=0;whiteSpace=wrap;html=1;" vertex="1" parent="1">
          <mxGeometry x="200" y="340" width="440" height="80" as="geometry" />
        </mxCell>
        <mxCell id="eqsFsYHSdhdJB8c038Pn-18" value="" style="rounded=0;whiteSpace=wrap;html=1;" vertex="1" parent="1">
          <mxGeometry x="200" y="380" width="440" height="40" as="geometry" />
        </mxCell>
        <mxCell id="eqsFsYHSdhdJB8c038Pn-19" value="" style="rounded=0;whiteSpace=wrap;html=1;" vertex="1" parent="1">
          <mxGeometry x="200" y="340" width="440" height="40" as="geometry" />
        </mxCell>
        <mxCell id="eqsFsYHSdhdJB8c038Pn-20" value="AIGC(文本生成模型)&amp;nbsp;" style="text;html=1;align=center;verticalAlign=middle;whiteSpace=wrap;rounded=0;" vertex="1" parent="1">
          <mxGeometry x="200" y="385" width="130" height="30" as="geometry" />
        </mxCell>
        <mxCell id="eqsFsYHSdhdJB8c038Pn-22" value="BERT" style="text;html=1;align=center;verticalAlign=middle;whiteSpace=wrap;rounded=0;fillColor=#dae8fc;strokeColor=none;" vertex="1" parent="1">
          <mxGeometry x="340" y="387.5" width="60" height="25" as="geometry" />
        </mxCell>
        <mxCell id="eqsFsYHSdhdJB8c038Pn-23" value="GPT" style="text;html=1;align=center;verticalAlign=middle;whiteSpace=wrap;rounded=0;fillColor=#dae8fc;strokeColor=none;" vertex="1" parent="1">
          <mxGeometry x="430" y="387.5" width="60" height="25" as="geometry" />
        </mxCell>
        <mxCell id="eqsFsYHSdhdJB8c038Pn-24" value="ERNIE" style="text;html=1;align=center;verticalAlign=middle;whiteSpace=wrap;rounded=0;fillColor=#dae8fc;strokeColor=none;" vertex="1" parent="1">
          <mxGeometry x="520" y="387.5" width="60" height="25" as="geometry" />
        </mxCell>
      </root>
    </mxGraphModel>
  </diagram>
</mxfile>
